<!DOCTYPE svg PUBLIC "-//W3C//DTD SVG 1.1//EN" "http://www.w3.org/Graphics/SVG/1.1/DTD/svg11.dtd">
<!-- Uploaded to: SVG Repo, www.svgrepo.com, Transformed by: SVG Repo Mixer Tools -->
<svg fill="#7c3aed" height="800px" width="800px" version="1.1" id="Layer_1" xmlns="http://www.w3.org/2000/svg" xmlns:xlink="http://www.w3.org/1999/xlink" viewBox="0 0 455.61 455.61" xml:space="preserve" stroke="#7c3aed" transform="rotate(0)matrix(1, 0, 0, -1, 0, 0)" stroke-width="0.00455606">
<g id="SVGRepo_bgCarrier" stroke-width="0"/>
<g id="SVGRepo_tracerCarrier" stroke-linecap="round" stroke-linejoin="round" stroke="#CCCCCC" stroke-width="5.4672719999999995"/>
<g id="SVGRepo_iconCarrier"> <g> <polygon points="98.277,300.352 67.099,300.847 0,367.946 41.002,389.772 114.35,316.424 "/> <path d="M455.606,21.213L434.394,0l-78.241,78.241c-11.074-3.478-23.635-0.91-32.151,8.001 c-16.677,17.451-120.946,126.514-194.235,203.172l27.01,27.01l9.416,9.416c76.658-73.289,185.721-177.558,203.172-194.235 c8.911-8.516,11.479-21.077,8.001-32.151L455.606,21.213z"/> <polygon points="62.472,410.729 87.66,455.606 154.76,388.507 155.254,357.33 135.563,337.638 "/> </g> </g>
</svg>